<svg width="156" height="171" viewBox="0 0 156 171" fill="none" xmlns="http://www.w3.org/2000/svg">
<path d="M45.2502 0.543169C16.3434 5.77113 30.9614 31.9172 31.5035 71.6155C32.0456 111.314 -35.1821 78.8309 -17.8761 113.973C-0.570058 149.115 31.4913 94.7023 47.8353 108.68C64.1792 122.658 21.9373 155.038 40.7007 167.281C68.2394 185.25 70.4118 131.735 85.037 119.463C99.6622 107.191 133.415 168.868 151.763 119.78C170.111 70.6925 120.925 116.58 111.087 85.6049C101.249 54.6296 167.235 63.4141 134.727 21.923C102.22 -19.5681 103.179 49.7794 76.1266 54.9413C49.0738 60.1031 73.6103 -4.58591 45.2502 0.543169Z" fill="#F07C01"/>
</svg>
